<svg width="54" height="27" viewBox="0 0 54 27" fill="none" xmlns="http://www.w3.org/2000/svg">
<g id="OC">
<path d="M13.3721 27C21.7843 27 26.7046 21.6783 26.7046 13.5C26.7046 5.32174 21.7843 0 13.3721 0C4.92031 0 0 5.32174 0 13.5C0 21.6783 4.92031 27 13.3721 27ZM13.3721 19.8391C9.24542 19.8391 8.01534 18.5478 8.01534 13.5C8.01534 8.45217 9.24542 7.16087 13.3721 7.16087C17.4592 7.16087 18.6892 8.45217 18.6892 13.5C18.6892 18.5478 17.4592 19.8391 13.3721 19.8391Z" fill="#7E8084"/>
<path d="M41.5008 27C49.913 27 54 22.6957 54 16.5913V15.6913H46.0243V15.8087C46.0243 18.8217 45.0323 19.8391 41.3421 19.8391C37.5328 19.8391 36.3028 18.9391 36.3028 13.5C36.3028 8.06087 37.5328 7.16087 41.3421 7.16087C45.0323 7.16087 46.0243 8.17826 46.0243 11.1913V11.3087H54V10.4087C54 4.30435 49.913 0 41.5008 0C32.93 0 28.2874 5.32174 28.2874 13.5C28.2874 21.6783 32.93 27 41.5008 27Z" fill="#7E8084"/>
</g>
</svg>
